<?xml version="1.0" standalone="no"?>
<!DOCTYPE svg PUBLIC "-//W3C//DTD SVG 20010904//EN"
 "http://www.w3.org/TR/2001/REC-SVG-20010904/DTD/svg10.dtd">
<svg version="1.0" xmlns="http://www.w3.org/2000/svg"
 width="512.000000pt" height="512.000000pt" viewBox="0 0 512.000000 512.000000"
 preserveAspectRatio="xMidYMid meet">
<metadata>
Created by potrace 1.14, written by Peter Selinger 2001-2017
</metadata>
<g transform="translate(0.000000,512.000000) scale(0.100000,-0.100000)"
fill="#000000" stroke="none">
<path d="M2814 4950 c-204 -63 -443 -193 -557 -303 -26 -26 -34 -28 -76 -23
-278 37 -478 21 -721 -56 -93 -30 -256 -102 -294 -131 -18 -13 -27 -12 -85 10
-59 22 -172 52 -261 68 -19 4 -118 9 -220 11 -207 5 -239 -1 -299 -53 -91 -77
-94 -191 -14 -498 48 -187 118 -341 207 -456 l43 -56 6 -154 c3 -85 8 -165 11
-179 12 -58 47 -216 51 -232 3 -15 -2 -17 -33 -14 -48 4 -78 -7 -85 -33 -10
-39 21 -61 93 -66 37 -3 67 -10 69 -17 2 -7 24 -51 47 -99 24 -48 44 -91 44
-96 0 -9 -139 -60 -152 -56 -4 2 -15 -9 -24 -22 -14 -21 -15 -31 -6 -50 15
-33 34 -32 151 6 l96 30 23 -28 c13 -15 41 -47 62 -70 l38 -41 -39 -32 c-21
-17 -75 -58 -118 -91 -44 -33 -83 -68 -86 -79 -16 -51 29 -83 75 -53 14 9 68
50 120 91 52 42 100 79 107 84 8 6 38 -9 90 -45 134 -92 256 -150 403 -192
l55 -15 2 -118 c1 -138 20 -246 67 -385 29 -84 78 -277 100 -387 11 -56 57
-258 69 -307 l14 -52 -60 3 c-134 5 -237 -30 -301 -105 -46 -55 -69 -125 -70
-219 0 -63 4 -86 25 -126 42 -82 154 -142 274 -146 41 -1 367 11 385 15 3 0
32 -7 65 -17 66 -20 165 -24 370 -12 259 14 262 15 319 75 17 17 33 31 37 31
4 0 10 -14 14 -31 6 -27 10 -30 32 -24 16 4 42 -3 76 -19 84 -42 165 -46 523
-31 243 10 301 21 379 75 70 48 171 164 205 235 l31 66 47 -8 c59 -10 215 -10
264 -1 159 32 310 143 378 278 57 114 71 177 75 340 7 232 -62 441 -175 530
-64 51 -146 41 -212 -24 -22 -23 -25 -33 -21 -74 2 -26 23 -101 47 -167 57
-160 70 -215 64 -289 -7 -77 -35 -135 -90 -178 -73 -59 -148 -87 -249 -95
l-65 -5 -2 79 c-1 43 -4 89 -7 103 -3 14 -10 51 -16 84 -18 100 -75 241 -146
361 -56 94 -183 235 -488 539 -187 188 -375 372 -418 410 -42 39 -77 73 -77
78 0 4 23 42 51 84 37 54 56 74 68 71 9 -3 76 -24 150 -46 74 -23 142 -41 152
-41 10 0 25 10 33 22 13 19 14 25 3 42 -18 27 -23 29 -175 76 -85 27 -132 46
-129 53 2 7 15 41 27 77 13 36 27 70 31 76 5 5 50 11 101 12 116 3 148 14 148
52 0 45 -19 52 -125 48 l-96 -4 7 66 c4 36 8 72 9 80 2 8 4 32 4 52 1 36 3 39
64 67 69 31 85 55 60 90 -17 25 -43 27 -84 5 -17 -8 -33 -13 -36 -10 -3 3 -7
29 -10 58 -11 128 -63 335 -114 455 -16 39 -17 46 -3 78 17 40 43 149 50 209
7 54 7 293 0 331 -3 17 -8 55 -11 85 -3 30 -15 100 -27 155 -27 120 -62 179
-128 211 -68 34 -105 35 -206 4z"/>
</g>
</svg>
